[center]
[img]http://www.coverdude.com/covers/barbie-a-fairy-secret-2010-ws-r1-front-cover-67907.jpg[/img]

[img]http://img705.imageshack.us/img705/954/infomm.png[/img]

[code]Format                                  : Matroska
Format version                          : Version 2
File size                       : 826 MiB
Duration                                : 1h 11mn
Overall bit rate mode           : Variable
Overall bit rate                        : 1 605 Kbps
Encoded date                            : UTC 2012-01-03 20:07:03
Writing application             : mkvmerge v4.9.1 ('Ich will') built on Jul 11 2011 23:53:15
Writing library                 : libebml v1.2.1 + libmatroska v1.1.1

Video
ID                                      : 1
Format                                  : MPEG-4 Visual
Format profile                          : Advanced Simple@L5
Format settings, BVOP           : Yes
Format settings, QPel           : No
Format settings, GMC                    : No warppoints
Format settings, Matrix         : Default (H.263)
Codec ID                                : XVID
Codec ID/Hint                   : XviD
Duration                                : 1h 11mn
Bit rate                                : 1 165 Kbps
Width                           : 640 pixels
Height                                  : 352 pixels
Display aspect ratio                    : 16:9
Frame rate                              : 25.000 fps
Color space                     : YUV
Chroma subsampling                      : 4:2:0
Bit depth                       : 8 bits
Scan type                       : Progressive
Compression mode                        : Lossy
Bits/(Pixel*Frame)                      : 0.207
Stream size                     : 599 MiB (73%)
Writing library                 : XviD 1.2.1 (UTC 2008-12-04)
Language                                : English

Audio #1
ID                                      : 2
Format                                  : MPEG Audio
Format version                          : Version 1
Format profile                          : Layer 3
Mode                                    : Joint stereo
Mode extension                          : MS Stereo
Muxing mode                     : Header stripping
Codec ID                                : A_MPEG/L3
Codec ID/Hint                   : MP3
Duration                                : 1h 11mn
Bit rate mode                   : Variable
Bit rate                                : 153 Kbps
Minimum bit rate                        : 32.0 Kbps
Channel(s)                              : 2 channels
Sampling rate                   : 48.0 KHz
Compression mode                        : Lossy
Stream size                     : 78.5 MiB (10%)
Writing library                 : LAME3.97 
Encoding settings               : -m j -V 2 -q 3 -lowpass 18.6 --vbr-new -b 32
Language                                : English

Audio #2
ID                                      : 3
Format                                  : MPEG Audio
Format version                          : Version 1
Format profile                          : Layer 3
Mode                                    : Joint stereo
Mode extension                          : MS Stereo
Muxing mode                     : Header stripping
Codec ID                                : A_MPEG/L3
Codec ID/Hint                   : MP3
Duration                                : 1h 11mn
Bit rate mode                   : Constant
Bit rate                                : 256 Kbps
Channel(s)                              : 2 channels
Sampling rate                   : 44.1 KHz
Compression mode                        : Lossy
Delay relative to video         : 20ms
Stream size                     : 132 MiB (16%)
Writing library                 : LAME
Language                                : Hindi


[/code]


[img]http://img834.imageshack.us/img834/2090/screensmu.png[/img]

[img]http://img684.imageshack.us/img684/6886/vlcsnap2012010401h42m00.png[/img]
[img]http://img824.imageshack.us/img824/7937/vlcsnap2012010401h43m08.png[/img]
[img]http://img843.imageshack.us/img843/6816/vlcsnap2012010401h44m59.png[/img]
[img]http://img846.imageshack.us/img846/811/vlcsnap2012010401h44m56.png[/img]
[img]http://img840.imageshack.us/img840/9022/vlcsnap2012010401h44m49.png[/img]
[img]http://img824.imageshack.us/img824/9040/vlcsnap2012010401h44m45.png[/img]
[img]http://img850.imageshack.us/img850/507/vlcsnap2012010401h44m38.png[/img]
[img]http://img196.imageshack.us/img196/1387/vlcsnap2012010401h44m32.png[/img]
[img]http://img534.imageshack.us/img534/9428/vlcsnap2012010401h44m12.png[/img]
[img]http://img805.imageshack.us/img805/3693/vlcsnap2012010401h43m53.png[/img]
[img]http://img834.imageshack.us/img834/2250/vlcsnap2012010401h43m44.png[/img]
[img]http://img214.imageshack.us/img214/4956/vlcsnap2012010401h43m35.png[/img]


[color=red][b][size=6]



Hindi Audio Recorded By me



[/size][/b][/color]



[/center]	